<svg xmlns="http://www.w3.org/2000/svg" version="1.1" xmlns:xlink="http://www.w3.org/1999/xlink" xmlns:svgjs="http://svgjs.dev/svgjs" width="2000" height="676" viewBox="0 0 2000 676"><g transform="matrix(1,0,0,1,-1.2121212121212466,0.15687524873385428)"><svg viewBox="0 0 396 134" data-background-color="#e50914" preserveAspectRatio="xMidYMid meet" height="676" width="2000" xmlns="http://www.w3.org/2000/svg" xmlns:xlink="http://www.w3.org/1999/xlink"><g id="tight-bounds" transform="matrix(1,0,0,1,0.2400000000000091,-0.031096572973865477)"><svg viewBox="0 0 395.52 134.06219314594776" height="134.06219314594776" width="395.52"><g><svg viewBox="0 0 632.7995746363206 214.48851839999998" height="134.06219314594776" width="395.52"><g transform="matrix(1,0,0,1,237.2795746363206,58.97366787279895)"><svg viewBox="0 0 395.52 96.54118265440208" height="96.54118265440208" width="395.52"><g id="textblocktransform"><svg viewBox="0 0 395.52 96.54118265440208" height="96.54118265440208" width="395.52" id="textblock"><g><svg viewBox="0 0 395.52 96.54118265440208" height="96.54118265440208" width="395.52"><g transform="matrix(1,0,0,1,0,0)"><svg width="395.52" viewBox="2.4 -37.15 152.19 37.15" height="96.54118265440208" data-palette-color="#e50914"><path d="M29.2 0Q28.35 0 27.03-2.02 25.7-4.05 23.25-8.4L23.25-8.4Q22.95-8.95 21.58-11.38 20.2-13.8 19.03-15.55 17.85-17.3 16.95-18.3L16.95-18.3 11.9-12.6 11.9-2.95 16.45-2.45 16.45 0 2.4 0 2.4-2.45 6.55-2.95 6.55-34.05 2.45-34.65 2.45-37.15 16.05-37.15 16.05-34.65 11.9-34.05 11.9-16.55 26.6-34.05 22.4-34.65 22.4-37.15 34.75-37.15 34.75-34.65 30.9-34.05 20.1-21.95Q21.85-20.45 23.83-17.6 25.8-14.75 28.65-10.25L28.65-10.25Q31.1-6.4 32.23-4.78 33.35-3.15 34-3L34-3 36.35-2.45 36.35 0 29.2 0ZM42.75-2.95L42.75-34.05 38.45-34.65 38.45-37.15 65.2-37.15 65.7-28.65 62.45-28.65 60.95-34.2 48.1-34.55 48.1-20.05 57.15-20.2 58-24.35 60.65-24.35 60.65-12.65 58.05-12.65 57.15-17 48.1-17.2 48.1-2.95 55.9-2.45 55.9 0 38.75 0 38.75-2.45 42.75-2.95ZM73.8-2.95L73.8-34.05 69.75-34.65 69.75-37.15 84.09-37.15 84.09-34.65 79.15-34.05 79.15-2.95 92.05-3.4 95-11.8 98.05-11.35 96.3 0 69.65 0 69.65-2.45 73.8-2.95ZM106.29-2.95L106.29-34.05 101.64-34.65 101.64-37.15 116.34-37.15 116.34-34.65 111.69-34.05 111.69-2.95 116.34-2.4 116.34 0 101.69 0 101.69-2.45 106.29-2.95ZM123.69-2.95L134.24-18.55 123.84-34 120.14-34.65 120.14-37.15 135.04-37.15 135.04-34.65 130.29-34 138.09-21.35 145.89-34.05 141.49-34.65 141.49-37.15 153.79-37.15 153.79-34.65 149.79-34 139.64-19.5 150.79-2.95 154.59-2.45 154.59 0 139.74 0 139.74-2.45 144.39-2.95 135.89-16.6 127.74-2.95 132.74-2.45 132.74 0 119.44 0 119.44-2.45 123.69-2.95Z" opacity="1" transform="matrix(1,0,0,1,0,0)" fill="#e50914" class="wordmark-text-0" data-fill-palette-color="primary" id="text-0"></path></svg></g></svg></g></svg></g></svg></g><g><svg viewBox="0 0 214.48851839999998 214.48851839999998" height="214.48851839999998" width="214.48851839999998"><g><svg></svg></g><g id="icon-0"><svg viewBox="0 0 214.48851839999998 214.48851839999998" height="214.48851839999998" width="214.48851839999998"><g><rect width="195.02567136" height="195.02567136" x="9.731423519999993" y="9.731423519999993" fill="#ff908b" data-fill-palette-color="accent"></rect><rect width="195.02567136" height="195.02567136" x="19.462847039999993" y="-5.329070518200751e-15" fill="#ff908b" opacity="0.5" data-fill-palette-color="accent"></rect></g><g transform="matrix(1,0,0,1,27.80406719999999,31.776076799999984)"><svg viewBox="0 0 158.880384 150.9363648" height="150.9363648" width="158.880384"><g><svg version="1.1" xmlns="http://www.w3.org/2000/svg" xmlns:xlink="http://www.w3.org/1999/xlink" x="0" y="0" viewBox="0 0 100 95" enable-background="new 0 0 100 95" xml:space="preserve" height="150.9363648" width="158.880384" class="icon-z$-0" data-fill-palette-color="background" id="z$-0"><path fill="#e50914" d="M0 0v95h20V77.5c0-1.385 0.892-2.5 2-2.5h56c1.107 0 2 1.115 2 2.5V95h20V0H80v17.5c0 1.385-0.893 2.5-2 2.5H22c-1.108 0-2-1.115-2-2.5V0H0zM7 5h6c1.108 0 2 0.446 2 1v3c0 0.554-0.892 1-2 1H7c-1.108 0-2-0.446-2-1V6C5 5.446 5.892 5 7 5zM87 5h6c1.107 0 2 0.446 2 1v3c0 0.554-0.893 1-2 1h-6c-1.107 0-2-0.446-2-1V6C85 5.446 85.893 5 87 5zM7 15.531h6c1.108 0 2 0.446 2 1v3c0 0.554-0.892 1-2 1H7c-1.108 0-2-0.446-2-1v-3C5 15.977 5.892 15.531 7 15.531zM87 15.531h6c1.107 0 2 0.446 2 1v3c0 0.554-0.893 1-2 1h-6c-1.107 0-2-0.446-2-1v-3C85 15.977 85.893 15.531 87 15.531zM7 25h6c1.108 0 2 0.446 2 1v3c0 0.554-0.892 1-2 1H7c-1.108 0-2-0.446-2-1v-3C5 25.446 5.892 25 7 25zM22 25h56c1.107 0 2 1.003 2 2.25v40.5c0 1.246-0.893 2.25-2 2.25H22c-1.108 0-2-1.004-2-2.25v-40.5C20 26.003 20.892 25 22 25zM87 25h6c1.107 0 2 0.446 2 1v3c0 0.554-0.893 1-2 1h-6c-1.107 0-2-0.446-2-1v-3C85 25.446 85.893 25 87 25zM7 35h6c1.108 0 2 0.446 2 1v3c0 0.554-0.892 1-2 1H7c-1.108 0-2-0.446-2-1v-3C5 35.446 5.892 35 7 35zM87 35h6c1.107 0 2 0.446 2 1v3c0 0.554-0.893 1-2 1h-6c-1.107 0-2-0.446-2-1v-3C85 35.446 85.893 35 87 35zM7 45h6c1.108 0 2 0.446 2 1v3c0 0.555-0.892 1-2 1H7c-1.108 0-2-0.445-2-1v-3C5 45.446 5.892 45 7 45zM87 45h6c1.107 0 2 0.446 2 1v3c0 0.555-0.893 1-2 1h-6c-1.107 0-2-0.445-2-1v-3C85 45.446 85.893 45 87 45zM7 55h6c1.108 0 2 0.445 2 1v3c0 0.555-0.892 1-2 1H7c-1.108 0-2-0.445-2-1v-3C5 55.445 5.892 55 7 55zM87 55h6c1.107 0 2 0.445 2 1v3c0 0.555-0.893 1-2 1h-6c-1.107 0-2-0.445-2-1v-3C85 55.445 85.893 55 87 55zM7 65h6c1.108 0 2 0.445 2 1v3c0 0.555-0.892 1-2 1H7c-1.108 0-2-0.445-2-1v-3C5 65.445 5.892 65 7 65zM87 65h6c1.107 0 2 0.445 2 1v3c0 0.555-0.893 1-2 1h-6c-1.107 0-2-0.445-2-1v-3C85 65.445 85.893 65 87 65zM7 75h6c1.108 0 2 0.445 2 1v3c0 0.555-0.892 1-2 1H7c-1.108 0-2-0.445-2-1v-3C5 75.445 5.892 75 7 75zM87 75h6c1.107 0 2 0.445 2 1v3c0 0.555-0.893 1-2 1h-6c-1.107 0-2-0.445-2-1v-3C85 75.445 85.893 75 87 75zM7 85h6c1.108 0 2 0.445 2 1v3c0 0.555-0.892 1-2 1H7c-1.108 0-2-0.445-2-1v-3C5 85.445 5.892 85 7 85zM87 85h6c1.107 0 2 0.445 2 1v3c0 0.555-0.893 1-2 1h-6c-1.107 0-2-0.445-2-1v-3C85 85.445 85.893 85 87 85z" data-fill-palette-color="background"></path></svg></g></svg></g></svg></g></svg></g></svg></g><defs></defs></svg><rect width="395.52" height="134.06219314594776" fill="none" stroke="none" visibility="hidden"></rect></g></svg></g></svg>