<svg xmlns="http://www.w3.org/2000/svg" version="1.1" xmlns:xlink="http://www.w3.org/1999/xlink" xmlns:svgjs="http://svgjs.dev/svgjs" width="2000" height="515" viewBox="0 0 2000 515"><g transform="matrix(1,0,0,1,-1.2121212121212466,0.4675634360293657)"><svg viewBox="0 0 396 102" data-background-color="#5e1914" preserveAspectRatio="xMidYMid meet" height="515" width="2000" xmlns="http://www.w3.org/2000/svg" xmlns:xlink="http://www.w3.org/1999/xlink"><g id="tight-bounds" transform="matrix(1,0,0,1,0.2400000000000091,-0.09260479703883107)"><svg viewBox="0 0 395.52 102.18520959407765" height="102.18520959407765" width="395.52"><g><svg viewBox="0 0 605.4405065549379 156.41956173913044" height="102.18520959407765" width="395.52"><g><rect width="9.404051668414999" height="104.8011063652174" x="175.89851858177158" y="25.809227686956525" fill="#e50914" opacity="1" stroke-width="0" stroke="transparent" fill-opacity="1" class="rect-r$-0" data-fill-palette-color="primary" rx="1%" id="r$-0" data-palette-color="#e50914"></rect></g><g transform="matrix(1,0,0,1,209.9205065549379,26.06992695652174)"><svg viewBox="0 0 395.52000000000004 104.27970782608696" height="104.27970782608696" width="395.52000000000004"><g id="textblocktransform"><svg viewBox="0 0 395.52000000000004 104.27970782608696" height="104.27970782608696" width="395.52000000000004" id="textblock"><g><svg viewBox="0 0 395.52000000000004 104.27970782608696" height="104.27970782608696" width="395.52000000000004"><g transform="matrix(1,0,0,1,0,0)"><svg width="395.52000000000004" viewBox="4.65 -37.9 143.73999999999998 37.9" height="104.27970782608696" data-palette-color="#e50914"><path d="M25.65 0L13.75-15.3 11.6-12.95 11.6 0 4.65 0 4.65-37.9 11.6-37.9 11.6-22.65 25.5-37.9 34.15-37.9 18.25-20.35 34.4 0 25.65 0ZM64.45-31.85L47.35-31.85 47.35-21.25 61.95-21.25 61.95-15.2 47.35-15.2 47.35 0 40.4 0 40.4-37.9 64.45-37.9 64.45-31.85ZM78.19-6.05L93.05-6.05 93.05 0 71.25 0 71.25-37.9 78.19-37.9 78.19-6.05ZM99.69 0L99.69-37.9 106.64-37.9 106.64 0 99.69 0ZM148.39 0L140.29 0 130.74-14.35 121.19 0 113.09 0 126.69-19.55 113.99-37.9 122.04-37.9 130.79-24.75 139.49-37.9 147.54-37.9 134.84-19.5 148.39 0Z" opacity="1" transform="matrix(1,0,0,1,0,0)" fill="#e50914" class="wordmark-text-0" data-fill-palette-color="primary" id="text-0"></path></svg></g></svg></g></svg></g></svg></g><g><svg viewBox="0 0 151.28058227702027 156.41956173913044" height="156.41956173913044" width="151.28058227702027"><g><svg xmlns="http://www.w3.org/2000/svg" xmlns:xlink="http://www.w3.org/1999/xlink" version="1.1" x="0" y="0" viewBox="7.487339512935998 6.066 84.025660487064 86.88" enable-background="new 0 0 100 100" xml:space="preserve" height="156.41956173913044" width="151.28058227702027" class="icon-icon-0" data-fill-palette-color="accent" id="icon-0"><rect x="34.571" y="16.321" fill="#e50914" width="5.716" height="5.716" data-fill-palette-color="accent"></rect><rect x="34.571" y="28.368" fill="#e50914" width="5.716" height="5.716" data-fill-palette-color="accent"></rect><rect x="34.571" y="40.416" fill="#e50914" width="5.716" height="5.716" data-fill-palette-color="accent"></rect><rect x="34.571" y="52.464" fill="#e50914" width="5.716" height="5.716" data-fill-palette-color="accent"></rect><rect x="80.349" y="16.321" fill="#e50914" width="5.716" height="5.716" data-fill-palette-color="accent"></rect><rect x="80.349" y="28.368" fill="#e50914" width="5.716" height="5.716" data-fill-palette-color="accent"></rect><rect x="80.349" y="40.416" fill="#e50914" width="5.716" height="5.716" data-fill-palette-color="accent"></rect><rect x="80.349" y="52.464" fill="#e50914" width="5.716" height="5.716" data-fill-palette-color="accent"></rect><path fill="#e50914" d="M52.324 50.356c-0.188 0-0.375-0.048-0.546-0.142-0.354-0.199-0.572-0.572-0.572-0.975V26.271c0-0.404 0.218-0.777 0.572-0.975 0.354-0.194 0.786-0.19 1.13 0.024l18.704 11.483c0.332 0.203 0.532 0.563 0.532 0.951 0 0.389-0.201 0.749-0.532 0.951L52.909 50.19C52.73 50.301 52.527 50.356 52.324 50.356zM53.442 28.268v18.974l15.45-9.488L53.442 28.268z" data-fill-palette-color="accent"></path><path fill="#e50914" d="M81.978 8.301c4.025 0 7.3 3.275 7.3 7.3V59.3c0 4.025-3.275 7.3-7.3 7.3H38.279c-4.025 0-7.3-3.275-7.3-7.3V15.601c0-4.025 3.275-7.3 7.3-7.3H81.978M81.978 6.066H38.279c-5.266 0-9.535 4.269-9.535 9.535V59.3c0 5.266 4.269 9.535 9.535 9.535h43.699c5.266 0 9.535-4.269 9.535-9.535V15.601C91.512 10.335 87.243 6.066 81.978 6.066L81.978 6.066z" data-fill-palette-color="accent"></path><path fill="#e50914" d="M74.63 71.069h-2.299l0.225 0.924c0.478 1.957 0.164 3.985-0.884 5.706-1.048 1.722-2.704 2.931-4.661 3.409l-38.573 9.386c-1.953 0.474-3.98 0.164-5.706-0.886-1.722-1.047-2.931-2.704-3.409-4.661l-9.383-38.57c-0.478-1.957-0.161-3.985 0.886-5.706 1.047-1.722 2.704-2.931 4.661-3.409l11.023-2.682V32.28l-11.551 2.809c-2.538 0.618-4.683 2.187-6.043 4.419-1.357 2.23-1.765 4.858-1.148 7.396l9.386 38.57c0.615 2.538 2.184 4.683 4.417 6.043 1.552 0.943 3.293 1.429 5.065 1.429 0.775 0 1.558-0.094 2.331-0.284l38.573-9.386c2.538-0.615 4.683-2.184 6.04-4.417 1.36-2.23 1.765-4.858 1.148-7.396L74.63 71.069z" data-fill-palette-color="accent"></path></svg></g></svg></g></svg></g><defs></defs></svg><rect width="395.52" height="102.18520959407765" fill="none" stroke="none" visibility="hidden"></rect></g></svg></g></svg>