<svg xmlns="http://www.w3.org/2000/svg" version="1.1" xmlns:xlink="http://www.w3.org/1999/xlink" xmlns:svgjs="http://svgjs.dev/svgjs" width="2000" height="282" viewBox="0 0 2000 282"><g transform="matrix(1,0,0,1,-1.2121212121212466,-1.0034743146633502)"><svg viewBox="0 0 396 56" data-background-color="#5e1914" preserveAspectRatio="xMidYMid meet" height="282" width="2000" xmlns="http://www.w3.org/2000/svg" xmlns:xlink="http://www.w3.org/1999/xlink"><g id="tight-bounds" transform="matrix(1,0,0,1,0.2400000000000091,0.19927149511045172)"><svg viewBox="0 0 395.52 55.6014570097791" height="55.6014570097791" width="395.52"><g><svg viewBox="0 0 528.7925098449942 74.33665555026204" height="55.6014570097791" width="395.52"><g><rect width="4.469170875300772" height="49.805559218675555" x="117.10393877257103" y="12.265548165793241" fill="#e50914" opacity="1" stroke-width="0" stroke="transparent" fill-opacity="1" class="rect-r$-0" data-fill-palette-color="primary" rx="1%" id="r$-0" data-palette-color="#e50914"></rect></g><g transform="matrix(1,0,0,1,133.27250984499423,12.389442591710342)"><svg viewBox="0 0 395.52 49.55777036684135" height="49.55777036684135" width="395.52"><g id="textblocktransform"><svg viewBox="0 0 395.52 49.55777036684135" height="49.55777036684135" width="395.52" id="textblock"><g><svg viewBox="0 0 395.52 49.55777036684135" height="49.55777036684135" width="395.52"><g transform="matrix(1,0,0,1,0,0)"><svg width="395.52" viewBox="4.35 -38.6 314.83 39.45" height="49.55777036684135" data-palette-color="#e50914"><path d="M28.85-31.05L12.3-31.05 12.3-21.55 26.35-21.55 26.35-14.7 12.3-14.7 12.3 0 4.35 0 4.35-37.9 28.85-37.9 28.85-31.05ZM43.25-6.85L57.55-6.85 57.55 0 35.3 0 35.3-37.9 43.25-37.9 43.25-6.85ZM63.9 0L63.9-37.9 71.84-37.9 71.84 0 63.9 0ZM97.79 0.85Q88.04 0.85 83.12-4.42 78.19-9.7 78.19-18.85L78.19-18.85Q78.19-24.45 80.42-28.93 82.64-33.4 87.04-36 91.44-38.6 97.79-38.6L97.79-38.6Q100.44-38.6 102.52-38.18 104.59-37.75 106.99-36.75L106.99-36.75 106.99-29.8Q102.74-31.85 98.04-31.85L98.04-31.85Q94.54-31.85 91.89-30.18 89.24-28.5 87.77-25.55 86.29-22.6 86.29-18.9L86.29-18.9Q86.29-13 89.34-9.45 92.39-5.9 97.79-5.9L97.79-5.9Q100.24-5.9 102.62-6.63 104.99-7.35 107.64-8.75L107.64-8.75 109.99-2.2Q107.09-0.7 103.89 0.08 100.69 0.85 97.79 0.85L97.79 0.85ZM136.99 0L125.94-14.4 124.04-12.3 124.04 0 116.09 0 116.09-37.9 124.04-37.9 124.04-23.55 136.84-37.9 146.74-37.9 131.09-20.2 146.99 0 136.99 0ZM178.44-37.9L186.64-37.9 173.14 0.45 163.24 0.45 149.69-37.9 157.89-37.9 168.19-7.95 178.44-37.9ZM200.49-6.45L217.29-6.45 217.29 0 192.54 0 192.54-37.9 217.04-37.9 217.04-31.45 200.49-31.45 200.49-22.3 214.54-22.3 214.54-15.85 200.49-15.85 200.49-6.45ZM246.08 0L237.58-14.3 232.58-14.3 232.58 0 224.63 0 224.63-37.9 239.43-37.9Q253.38-37.9 253.38-26.05L253.38-26.05Q253.38-17.35 245.63-15.05L245.63-15.05 254.98 0 246.08 0ZM232.58-31.15L232.58-21.05 239.43-21.05Q245.33-21.05 245.33-26.05L245.33-26.05Q245.33-28.7 243.88-29.93 242.43-31.15 239.43-31.15L239.43-31.15 232.58-31.15ZM273.48 0.85Q265.73 0.85 259.78-1.95L259.78-1.95 259.78-9.2Q266.03-5.9 273.48-5.9L273.48-5.9Q276.68-5.9 278.21-7.1 279.73-8.3 279.73-10.25L279.73-10.25Q279.73-12.15 278.36-13.1 276.98-14.05 273.78-14.95L273.78-14.95 270.38-15.9Q267.43-16.75 265.26-17.88 263.08-19 261.58-21.2 260.08-23.4 260.08-26.9L260.08-26.9Q260.08-32.65 263.56-35.63 267.03-38.6 273.33-38.6L273.33-38.6Q277.08-38.6 279.96-37.93 282.83-37.25 285.78-35.85L285.78-35.85 285.78-28.85Q280.23-31.85 273.33-31.85L273.33-31.85Q270.43-31.85 269.21-30.75 267.98-29.65 267.98-27.6L267.98-27.6Q268.03-25.65 269.21-24.78 270.38-23.9 273.58-23L273.58-23 277.03-22.05Q280.18-21.2 282.43-20 284.68-18.8 286.16-16.53 287.63-14.25 287.63-10.6L287.63-10.6Q287.58-5.25 283.83-2.2 280.08 0.85 273.48 0.85L273.48 0.85ZM302.38-6.45L319.18-6.45 319.18 0 294.43 0 294.43-37.9 318.93-37.9 318.93-31.45 302.38-31.45 302.38-22.3 316.43-22.3 316.43-15.85 302.38-15.85 302.38-6.45Z" opacity="1" transform="matrix(1,0,0,1,0,0)" fill="#e50914" class="wordmark-text-0" data-fill-palette-color="primary" id="text-0"></path></svg></g></svg></g></svg></g></svg></g><g><svg viewBox="0 0 105.40453857544858 74.33665555026204" height="74.33665555026204" width="105.40453857544858"><g><svg xmlns="http://www.w3.org/2000/svg" xmlns:xlink="http://www.w3.org/1999/xlink" version="1.1" x="0" y="0" viewBox="0.5000000000000002 10.9 71.03853870664699 50.1" enable-background="new 0 0 72 72" xml:space="preserve" height="74.33665555026204" width="105.40453857544858" class="icon-icon-0" data-fill-palette-color="accent" id="icon-0"><g fill="#e50914" data-fill-palette-color="accent"><path fill="#e50914" d="M70.2 10.9H22.8c-0.6 0-1.1 0.4-1.3 1L8.8 59.4c-0.2 0.8 0.4 1.6 1.3 1.6h47.4c0.6 0 1.1-0.4 1.3-1l12.7-47.5C71.7 11.7 71.1 10.9 70.2 10.9zM19.6 53.1l-1 3.7c-0.2 0.6-0.7 1-1.3 1h-3.6c-0.9 0-1.5-0.8-1.3-1.6l1-3.7c0.2-0.6 0.7-1 1.3-1h3.6C19.2 51.4 19.9 52.2 19.6 53.1zM35.2 18.9l1-3.7c0.2-0.6 0.7-1 1.3-1h3.6c0.9 0 1.5 0.8 1.3 1.6l-1 3.7c-0.2 0.6-0.7 1-1.3 1h-3.6C35.6 20.6 34.9 19.8 35.2 18.9zM22.4 18.9l1-3.7c0.2-0.6 0.7-1 1.3-1h3.6c0.9 0 1.5 0.8 1.3 1.6l-1 3.7c-0.2 0.6-0.7 1-1.3 1h-3.6C22.8 20.6 22.2 19.8 22.4 18.9zM32.4 53.1l-1 3.7c-0.2 0.6-0.7 1-1.3 1h-3.6c-0.9 0-1.5-0.8-1.3-1.6l1-3.7c0.2-0.6 0.7-1 1.3-1h3.6C32 51.4 32.6 52.2 32.4 53.1zM45.1 53.1l-1 3.7c-0.2 0.6-0.7 1-1.3 1h-3.6c-0.9 0-1.5-0.8-1.3-1.6l1-3.7c0.2-0.6 0.7-1 1.3-1h3.6C44.7 51.4 45.3 52.2 45.1 53.1zM45.6 37.2l-11.7 9.3c-1.4 1.1-3 0.3-2.6-1.2l5-18.5c0.4-1.5 2.5-2.3 3.2-1.2l6.8 9.3C46.8 35.5 46.5 36.5 45.6 37.2zM47.9 18.9l1-3.7c0.2-0.6 0.7-1 1.3-1h3.6c0.9 0 1.5 0.8 1.3 1.6l-1 3.7c-0.2 0.6-0.7 1-1.3 1h-3.6C48.3 20.6 47.6 19.8 47.9 18.9zM57.8 53.1l-1 3.7c-0.2 0.6-0.7 1-1.3 1h-3.6c-0.9 0-1.5-0.8-1.3-1.6l1-3.7c0.2-0.6 0.7-1 1.3-1h3.6C57.4 51.4 58 52.2 57.8 53.1zM67.8 15.9l-1 3.7c-0.2 0.6-0.7 1-1.3 1h-3.6c-0.9 0-1.5-0.8-1.3-1.6l1-3.7c0.2-0.6 0.7-1 1.3-1h3.6C67.4 14.2 68 15 67.8 15.9z" data-fill-palette-color="accent"></path><path fill="#e50914" d="M3.2 24.1h9.4c1 0 1.7-0.8 1.7-1.7 0-1-0.8-1.7-1.7-1.7H3.2c-1 0-1.7 0.8-1.7 1.7C1.5 23.4 2.3 24.1 3.2 24.1z" data-fill-palette-color="accent"></path><path fill="#e50914" d="M2.2 33.2h7.4c1 0 1.7-0.8 1.7-1.7 0-1-0.8-1.7-1.7-1.7H2.2c-1 0-1.7 0.8-1.7 1.7C0.5 32.4 1.3 33.2 2.2 33.2z" data-fill-palette-color="accent"></path><path fill="#e50914" d="M8.4 38.8H3.2c-1 0-1.7 0.8-1.7 1.7 0 1 0.8 1.7 1.7 1.7h5.2c1 0 1.7-0.8 1.7-1.7C10.1 39.6 9.3 38.8 8.4 38.8z" data-fill-palette-color="accent"></path><path fill="#e50914" d="M5 47.9H2.2c-1 0-1.7 0.8-1.7 1.7 0 1 0.8 1.7 1.7 1.7H5c1 0 1.7-0.8 1.7-1.7C6.7 48.6 6 47.9 5 47.9z" data-fill-palette-color="accent"></path></g></svg></g></svg></g></svg></g><defs></defs></svg><rect width="395.52" height="55.6014570097791" fill="none" stroke="none" visibility="hidden"></rect></g></svg></g></svg>